<?xml version="1.0" standalone="no"?>
<!DOCTYPE svg PUBLIC "-//W3C//DTD SVG 20010904//EN"
 "http://www.w3.org/TR/2001/REC-SVG-20010904/DTD/svg10.dtd">
<svg version="1.0" xmlns="http://www.w3.org/2000/svg"
 width="1080.000000pt" height="1080.000000pt" viewBox="0 0 1080.000000 1080.000000"
 preserveAspectRatio="xMidYMid meet">
<metadata>
Created by potrace 1.14, written by Peter Selinger 2001-2017
</metadata>
<g transform="translate(0.000000,1080.000000) scale(0.100000,-0.100000)"
fill="#000000" stroke="none">
<path d="M5510 9814 c-175 -19 -293 -46 -455 -105 -77 -28 -189 -68 -250 -89
-133 -45 -316 -123 -526 -223 -477 -228 -901 -601 -1104 -972 -21 -38 -67
-107 -102 -152 -35 -45 -99 -141 -143 -213 -44 -72 -123 -195 -176 -273 -52
-78 -124 -185 -159 -237 -96 -142 -289 -401 -365 -489 -149 -172 -434 -593
-502 -740 -26 -58 -57 -123 -68 -143 -75 -140 -162 -400 -222 -669 -33 -148
-33 -427 1 -607 l23 -124 -36 -111 c-102 -321 -156 -662 -156 -995 l0 -182
-29 -41 c-41 -56 -64 -131 -65 -214 -1 -116 48 -175 147 -175 58 0 94 17 137
67 55 62 82 134 87 232 6 110 -12 144 -83 162 l-47 12 7 156 c11 254 36 456
87 701 25 119 28 130 40 130 5 0 59 -100 119 -222 93 -190 122 -240 197 -334
49 -61 120 -156 159 -210 122 -169 175 -219 335 -317 79 -49 191 -121 249
-160 58 -40 146 -90 195 -112 50 -22 111 -54 137 -71 47 -32 295 -117 430
-148 88 -20 138 -42 138 -59 0 -7 -7 -36 -15 -63 -68 -233 -129 -723 -129
-1054 -1 -243 5 -286 50 -340 52 -61 130 -29 127 53 -7 212 -3 438 11 582 18
187 80 655 99 750 l12 60 60 2 c33 2 159 5 280 7 206 4 376 19 400 34 5 4 219
10 475 14 256 3 517 11 580 17 63 5 196 15 295 21 341 21 680 73 978 150 62
16 115 26 118 22 8 -9 35 -269 49 -467 6 -82 19 -253 30 -380 11 -126 24 -331
30 -455 13 -271 32 -442 55 -476 9 -14 27 -29 41 -34 13 -5 24 -14 24 -20 0
-6 11 -22 25 -35 23 -24 30 -25 147 -25 109 0 192 7 295 25 74 13 120 90 93
156 -19 46 -66 75 -164 103 -72 21 -110 26 -202 26 -62 0 -115 4 -118 8 -3 5
-10 89 -16 188 -5 98 -15 260 -21 359 -11 190 -51 636 -69 770 -6 44 -22 129
-36 189 -13 61 -21 113 -16 118 4 4 86 34 182 67 96 32 230 82 297 111 128 54
669 324 788 393 271 157 479 335 665 569 116 145 187 273 316 566 15 35 31 59
35 55 17 -17 167 -569 215 -788 9 -38 22 -119 30 -180 7 -60 21 -130 30 -155
16 -45 16 -46 -9 -83 -31 -45 -42 -120 -34 -223 10 -130 61 -201 151 -211 62
-7 110 19 152 81 107 162 68 384 -81 461 -17 9 -22 28 -31 121 -15 138 -23
177 -91 449 -70 280 -149 522 -213 651 l-51 102 25 85 c45 154 105 461 117
597 14 162 6 498 -15 650 -69 490 -156 841 -265 1078 -28 59 -77 181 -111 271
-66 180 -100 247 -186 367 -31 43 -84 120 -117 169 -154 231 -295 376 -498
515 -68 46 -170 119 -225 161 -186 140 -328 212 -564 284 -112 34 -191 66
-286 115 -71 38 -159 80 -195 94 -35 15 -104 49 -152 77 -48 27 -120 62 -160
78 -96 38 -292 87 -397 100 -120 14 -659 11 -810 -5z m843 -264 c157 -26 263
-62 397 -133 63 -34 146 -75 185 -92 38 -17 122 -58 185 -92 79 -42 176 -81
311 -126 224 -74 328 -126 474 -237 55 -42 156 -114 225 -160 154 -104 281
-225 370 -350 151 -215 268 -387 282 -415 9 -16 45 -109 81 -206 37 -96 87
-220 112 -274 89 -190 169 -531 231 -974 20 -148 29 -462 16 -606 -31 -355
-197 -870 -389 -1209 -62 -110 -215 -299 -320 -396 -160 -148 -301 -239 -648
-417 -449 -231 -583 -288 -945 -403 -439 -139 -724 -193 -1165 -220 -93 -6
-228 -16 -300 -23 -209 -19 -1102 -14 -1340 8 -140 13 -221 16 -310 10 -66 -4
-140 -8 -165 -8 -59 0 -234 20 -285 32 -22 6 -67 11 -99 11 -51 0 -77 8 -175
54 -64 30 -150 70 -191 89 -41 19 -120 67 -175 106 -55 40 -153 104 -217 142
-128 77 -173 120 -274 263 -32 44 -95 128 -139 186 -66 84 -104 149 -194 330
-124 249 -164 351 -187 479 -51 283 -45 412 32 696 59 213 84 285 131 380 25
50 64 133 87 185 53 120 335 539 473 702 128 150 274 342 338 445 29 45 86
128 127 185 75 104 154 227 266 415 34 57 93 144 131 195 39 51 84 117 100
148 90 168 257 374 408 501 109 92 293 226 395 287 147 88 507 251 701 316 56
19 163 57 237 85 243 91 371 108 808 110 256 0 320 -2 415 -19z m3355 -5947
c3 -65 -12 -113 -30 -95 -12 12 -23 124 -14 147 3 9 14 15 23 13 15 -3 19 -15
21 -65z m-8298 -240 c0 -71 -59 -177 -88 -159 -15 9 -14 81 2 126 20 56 86 81
86 33z"/>
<path d="M6293 9380 c-45 -18 -37 -84 12 -96 48 -12 105 51 74 81 -19 19 -60
26 -86 15z"/>
<path d="M4450 6964 c-61 -52 -65 -68 -68 -299 -3 -206 -3 -211 20 -245 63
-94 190 -88 240 11 34 65 17 403 -23 486 -36 74 -111 95 -169 47z"/>
<path d="M5700 6953 c-32 -33 -39 -48 -50 -113 -7 -41 -13 -147 -14 -236 l-1
-160 28 -37 c53 -69 149 -73 212 -7 26 28 29 38 35 128 4 53 4 156 0 227 -7
145 -20 181 -76 216 -50 31 -90 25 -134 -18z"/>
<path d="M8842 6708 c-36 -36 7 -91 54 -69 42 19 26 81 -21 81 -12 0 -26 -5
-33 -12z"/>
<path d="M8405 6026 c-11 -8 -18 -26 -18 -46 0 -56 54 -79 93 -40 26 26 25 46
-5 75 -27 28 -43 31 -70 11z"/>
<path d="M5643 5735 c-12 -8 -55 -80 -96 -160 -41 -79 -96 -171 -122 -204
-142 -180 -324 -200 -474 -52 -69 67 -104 136 -130 254 -22 99 -32 117 -71
117 -44 0 -64 -32 -68 -112 -9 -145 42 -271 154 -385 153 -156 347 -193 533
-102 174 86 370 386 371 566 0 44 -4 55 -26 72 -32 25 -43 26 -71 6z"/>
<path d="M8707 5552 c-29 -32 -19 -78 21 -93 35 -14 72 12 72 51 0 54 -58 80
-93 42z"/>
<path d="M7577 5222 c-17 -19 -22 -68 -9 -88 11 -17 48 -34 75 -34 55 0 76 72
32 115 -29 30 -75 33 -98 7z"/>
<path d="M2029 5189 c-56 -21 -63 -119 -12 -159 35 -27 78 -26 108 5 30 30 32
68 5 113 -16 25 -60 57 -73 51 -1 0 -14 -5 -28 -10z"/>
<path d="M2493 4925 c-29 -20 -30 -58 -2 -86 26 -26 57 -21 82 14 l21 27 -21
28 c-24 33 -50 38 -80 17z"/>
<path d="M8315 4895 c-14 -13 -25 -36 -25 -50 0 -35 42 -75 79 -75 35 0 71 39
71 77 0 32 -42 73 -75 73 -14 0 -37 -11 -50 -25z"/>
<path d="M2058 4626 c-29 -14 -36 -66 -13 -90 22 -21 68 -20 88 2 21 23 21 41
2 69 -19 26 -47 34 -77 19z"/>
<path d="M7380 4390 c-55 -55 19 -139 85 -96 32 21 34 67 3 96 -28 25 -62 26
-88 0z"/>
<path d="M3194 1491 c-16 -4 -52 -18 -78 -31 -65 -33 -247 -180 -268 -217 -54
-94 29 -174 152 -146 25 6 89 21 143 33 180 40 330 112 343 165 9 37 -18 73
-58 77 -28 3 -33 7 -36 33 -2 17 -9 36 -15 44 -27 32 -128 55 -183 42z"/>
</g>
</svg>
